<?xml version="1.0" encoding="iso-8859-1"?>
<!-- Generator: Adobe Illustrator 16.0.0, SVG Export Plug-In . SVG Version: 6.00 Build 0)  -->
<!DOCTYPE svg PUBLIC "-//W3C//DTD SVG 1.1//EN" "http://www.w3.org/Graphics/SVG/1.1/DTD/svg11.dtd">
<svg xmlns="http://www.w3.org/2000/svg" xmlns:xlink="http://www.w3.org/1999/xlink" version="1.1" id="Capa_1" x="0px" y="0px" width="512px" height="512px" viewBox="0 0 512 512" style="enable-background:new 0 0 512 512;" xml:space="preserve">
<g>
	<path d="M448,160c-17.6,0-32,14.4-32,32v128c0,17.601,14.4,32,32,32s32-14.399,32-32V192C480,174.4,465.6,160,448,160z M64,160   c-17.6,0-32,14.4-32,32v128c0,17.601,14.4,32,32,32s32-14.399,32-32V192C96,174.4,81.599,160,64,160z M112,368   c0,26.51,21.49,48,48,48h16v64c0,17.6,14.4,32,32,32s32-14.4,32-32v-64h32v64c0,17.6,14.4,32,32,32s32-14.4,32-32v-64h16   c26.51,0,48-21.49,48-48V192H112V368z M315.299,44.747l20.252-38.903c1.018-1.951,0.25-4.379-1.701-5.395   c-1.949-1.016-4.379-0.25-5.395,1.701l-20.559,39.493C291.797,35.419,274.299,32,256,32c-18.298,0-35.796,3.419-51.898,9.643   L183.544,2.151c-1.016-1.951-3.443-2.717-5.395-1.701c-1.952,1.016-2.717,3.443-1.701,5.395l20.25,38.904   c-45.315,20.509-78.12,63.792-83.81,115.252h286.219C393.42,108.539,360.615,65.257,315.299,44.747z M192,135.2   c-12.813,0-23.2-10.387-23.2-23.2s10.387-23.2,23.2-23.2s23.2,10.387,23.2,23.2C215.199,124.813,204.813,135.2,192,135.2z    M320,135.2c-12.812,0-23.201-10.387-23.201-23.2S307.188,88.8,320,88.8s23.199,10.387,23.199,23.2S332.812,135.2,320,135.2z" fill="#FFFFFF"/>
</g>
<g>
</g>
<g>
</g>
<g>
</g>
<g>
</g>
<g>
</g>
<g>
</g>
<g>
</g>
<g>
</g>
<g>
</g>
<g>
</g>
<g>
</g>
<g>
</g>
<g>
</g>
<g>
</g>
<g>
</g>
</svg>
