<?xml version="1.0" encoding="iso-8859-1"?>
<!-- Generator: Adobe Illustrator 16.0.0, SVG Export Plug-In . SVG Version: 6.00 Build 0)  -->
<!DOCTYPE svg PUBLIC "-//W3C//DTD SVG 1.1//EN" "http://www.w3.org/Graphics/SVG/1.1/DTD/svg11.dtd">
<svg xmlns="http://www.w3.org/2000/svg" xmlns:xlink="http://www.w3.org/1999/xlink" version="1.1" id="Capa_1" x="0px" y="0px" width="512px" height="512px" viewBox="0 0 47.067 47.067" style="enable-background:new 0 0 47.067 47.067;" xml:space="preserve">
<g>
	<g>
		<path d="M43.377,23.098l-8.074-3.027l-7.934-8.429c-0.353-0.371-0.84-0.581-1.351-0.581H7.886c-0.607,0-1.176,0.298-1.522,0.798    L0.327,20.6c0,0.002-0.002,0.006-0.002,0.01c-0.093,0.134-0.159,0.282-0.212,0.434c-0.016,0.04-0.106,0.427-0.109,0.585    C0.004,21.637,0,21.645,0,21.651v7.816c0,1.021,0.829,1.851,1.851,1.851h0.002h1.764c0.543,2.672,2.91,4.688,5.739,4.688    c2.832,0,5.199-2.02,5.743-4.688h15.461c0.545,2.672,2.909,4.688,5.739,4.688s5.197-2.02,5.742-4.688h3.172    c1.024,0,1.854-0.828,1.854-1.851v-1.04C47.069,26.07,45.586,23.928,43.377,23.098z M9.359,32.305    c-1.192,0-2.157-0.966-2.157-2.158c0-1.191,0.965-2.158,2.157-2.158c1.193,0,2.16,0.967,2.16,2.158    C11.519,31.339,10.552,32.305,9.359,32.305z M13.372,19.802H5.379l3.478-5.038h4.512v5.038H13.372z M17.075,19.802v-5.038h8.146    l4.744,5.038H17.075z M36.252,32.305c-1.191,0-2.156-0.966-2.156-2.158c0-1.191,0.965-2.158,2.156-2.158    c1.192,0,2.159,0.967,2.159,2.158C38.411,31.339,37.444,32.305,36.252,32.305z" fill="#575357"/>
	</g>
</g>
<g>
</g>
<g>
</g>
<g>
</g>
<g>
</g>
<g>
</g>
<g>
</g>
<g>
</g>
<g>
</g>
<g>
</g>
<g>
</g>
<g>
</g>
<g>
</g>
<g>
</g>
<g>
</g>
<g>
</g>
</svg>
