<?xml version="1.0" encoding="iso-8859-1"?>
<!-- Generator: Adobe Illustrator 19.0.0, SVG Export Plug-In . SVG Version: 6.00 Build 0)  -->
<svg version="1.1" id="Capa_1" xmlns="http://www.w3.org/2000/svg" xmlns:xlink="http://www.w3.org/1999/xlink" x="0px" y="0px"
	 viewBox="0 0 463 463" style="enable-background:new 0 0 463 463;" xml:space="preserve">
<path d="M367.5,159c4.142,0,7.5-3.357,7.5-7.5v-32c0-0.278-0.018-0.552-0.047-0.822c-0.004-0.037-0.012-0.074-0.017-0.111
	c-0.039-0.313-0.1-0.619-0.176-0.919c-0.015-0.061-0.03-0.121-0.046-0.181c-0.093-0.332-0.206-0.656-0.342-0.967
	c-0.013-0.03-0.029-0.058-0.042-0.087c-0.132-0.291-0.282-0.57-0.448-0.839c-0.031-0.051-0.06-0.103-0.093-0.153
	c-0.183-0.281-0.384-0.549-0.602-0.802c-0.044-0.052-0.092-0.101-0.138-0.152c-0.225-0.248-0.462-0.483-0.718-0.699
	c-0.011-0.009-0.019-0.02-0.03-0.029l-0.026-0.022c-0.003-0.002-0.006-0.005-0.008-0.007l-95.292-79.41L253.5,3
	c-1.417-1.889-3.639-3-6-3h-32c-2.361,0-4.583,1.111-6,3l-23.474,31.299l-95.292,79.41c-0.003,0.002-0.006,0.005-0.008,0.007
	l-0.026,0.022c-0.011,0.009-0.019,0.02-0.03,0.029c-0.256,0.216-0.493,0.452-0.718,0.699c-0.046,0.051-0.093,0.1-0.138,0.152
	c-0.218,0.253-0.419,0.521-0.602,0.802c-0.033,0.05-0.062,0.102-0.093,0.153c-0.166,0.269-0.317,0.548-0.448,0.839
	c-0.013,0.029-0.029,0.057-0.042,0.087c-0.136,0.312-0.248,0.635-0.342,0.967c-0.017,0.06-0.031,0.12-0.046,0.181
	c-0.076,0.3-0.137,0.606-0.176,0.919c-0.005,0.037-0.013,0.074-0.017,0.111C88.018,118.948,88,119.222,88,119.5v32
	c0,4.143,3.358,7.5,7.5,7.5s7.5-3.357,7.5-7.5V127h81v68.987l-93.267,77.722c-0.003,0.002-0.006,0.005-0.008,0.007l-0.026,0.022
	c-0.011,0.009-0.019,0.02-0.03,0.029c-0.256,0.216-0.493,0.452-0.718,0.699c-0.046,0.051-0.093,0.1-0.138,0.152
	c-0.218,0.253-0.419,0.521-0.602,0.802c-0.033,0.05-0.062,0.102-0.093,0.153c-0.166,0.269-0.317,0.548-0.448,0.839
	c-0.013,0.029-0.029,0.057-0.042,0.087c-0.136,0.312-0.248,0.635-0.342,0.967c-0.017,0.06-0.031,0.12-0.046,0.181
	c-0.076,0.3-0.137,0.606-0.176,0.919c-0.005,0.037-0.013,0.074-0.017,0.111C88.018,278.948,88,279.222,88,279.5v32
	c0,4.143,3.358,7.5,7.5,7.5s7.5-3.357,7.5-7.5V287h77.792l-58.545,161H111.5c-4.142,0-7.5,3.357-7.5,7.5s3.358,7.5,7.5,7.5h40
	c4.142,0,7.5-3.357,7.5-7.5s-3.358-7.5-7.5-7.5h-8.173L231.5,340.233L319.673,448H319.5c-4.142,0-7.5,3.357-7.5,7.5
	s3.358,7.5,7.5,7.5h40c4.142,0,7.5-3.357,7.5-7.5s-3.358-7.5-7.5-7.5h-18.747l-58.545-161H360v24.5c0,4.143,3.358,7.5,7.5,7.5
	s7.5-3.357,7.5-7.5v-32c0-0.278-0.018-0.552-0.047-0.822c-0.004-0.037-0.012-0.074-0.017-0.111c-0.039-0.313-0.1-0.619-0.176-0.919
	c-0.015-0.061-0.03-0.121-0.046-0.181c-0.093-0.332-0.206-0.656-0.342-0.967c-0.013-0.03-0.029-0.058-0.042-0.087
	c-0.132-0.291-0.282-0.57-0.448-0.839c-0.031-0.051-0.06-0.103-0.093-0.153c-0.183-0.281-0.384-0.549-0.602-0.802
	c-0.044-0.052-0.092-0.101-0.138-0.152c-0.225-0.248-0.462-0.483-0.718-0.699c-0.011-0.009-0.019-0.02-0.03-0.029l-0.026-0.022
	c-0.003-0.002-0.006-0.005-0.008-0.007L279,195.987V127h81v24.5C360,155.643,363.358,159,367.5,159z M220.893,79.5L199,101.393
	V57.607L220.893,79.5z M209.607,47h43.786L231.5,68.893L209.607,47z M209.607,112L231.5,90.107L253.393,112H209.607z M253.393,127
	L231.5,148.893L209.607,127H253.393z M220.893,159.5L199,181.393v-43.786L220.893,159.5z M209.607,192l21.893-21.893L253.393,192
	H209.607z M253.393,207L231.5,228.893L209.607,207H253.393z M220.893,239.5L199,261.393v-43.786L220.893,239.5z M231.5,250.107
	L253.393,272h-43.786L231.5,250.107z M255.673,287L231.5,316.545L207.327,287H255.673z M242.107,239.5L264,217.607v43.786
	L242.107,239.5z M242.107,159.5L264,137.607v43.786L242.107,159.5z M242.107,79.5L264,57.607v43.786L242.107,79.5z M219.25,15h24.5
	l12.75,17h-50L219.25,15z M184,55.513V112h-67.785L184,55.513z M184,215.513V272h-67.785L184,215.513z M149.617,416.624
	l44.426-122.172l27.766,33.937L149.617,416.624z M241.19,328.389l27.766-33.937l44.426,122.172L241.19,328.389z M279,272v-56.487
	L346.785,272H279z M279,112V55.513L346.785,112H279z"/>
<g>
</g>
<g>
</g>
<g>
</g>
<g>
</g>
<g>
</g>
<g>
</g>
<g>
</g>
<g>
</g>
<g>
</g>
<g>
</g>
<g>
</g>
<g>
</g>
<g>
</g>
<g>
</g>
<g>
</g>
</svg>
