<svg xmlns="http://www.w3.org/2000/svg" width="395.68" height="395.68" viewBox="0 0 395.68 395.68">
  <title>icons[1]</title>
  <g>
    <rect x="72.72" y="82.37" width="253.98" height="250.87" rx="19.61" ry="19.61" style="fill: #f5f1ed"/>
    <path d="M197.07,103.35l-1.58,210.13a19.61,19.61,0,0,0,19.61,19.76h92a19.61,19.61,0,0,0,19.61-19.61V102.71A19.61,19.61,0,0,0,306.92,83.1l-90.41.79A19.61,19.61,0,0,0,197.07,103.35Z" style="fill: #d0d7d8"/>
    <rect x="68.98" y="62.45" width="128.24" height="28.95" rx="4.67" ry="4.67" style="fill: #152137"/>
    <rect x="195.34" y="62.45" width="131.36" height="28.95" rx="3.58" ry="3.58" style="fill: #086eaa"/>
    <g>
      <path d="M162.41,180h12.74v44.71h-8.45V188h-9.21Z"/>
      <path d="M222.5,178.84l7.25,3.63-7.83,15.19a13,13,0,0,1,9.67,4.07,13.91,13.91,0,0,1,4,10.12,14,14,0,0,1-24,9.74,13.56,13.56,0,0,1-4-9.65,14.55,14.55,0,0,1,.62-4.16,42,42,0,0,1,2.87-6.44Zm-1.06,26.87a5.24,5.24,0,0,0-4,1.72,6.49,6.49,0,0,0,.08,8.65,5.28,5.28,0,0,0,3.94,1.76,5.51,5.51,0,0,0,4.07-1.73,6.45,6.45,0,0,0,0-8.68A5.53,5.53,0,0,0,221.44,205.71Z"/>
    </g>
  </g>
</svg>
