<svg xmlns="http://www.w3.org/2000/svg" width="395.68" height="395.68" viewBox="0 0 395.68 395.68">
  <title>icons[1]</title>
  <g>
    <path d="M194.37,289.9l-33.17.26-15.51-.26-0.67-.52a20.92,20.92,0,0,0-.12-2.57c-0.54-3.27.77-4.33,4-4.07a109.21,109.21,0,0,0,11,0c3.13-.07,4.86-2,4.79-4.91S163.29,273,160,273c-3.93.06-7.87-.13-11.79,0.06-2.61.13-3.36-.79-3.32-3.35,0.14-8.6.05-17.2,0.05-25.79,0-5.38-3.83-8.91-9.11-8.32-1.33.15-2.64,0.54-4,.82q-0.06-26.85-.12-53.71c0-2.08,0-4.17-.07-6.25,1.25-1.18,2.81-.65,4.22-0.65q35.18-.11,70.35-0.14l0.73,0,0.73,0,2.16,0.24,0.78,62.42c-3.92,0-7.86.32-11.76,0.05-3.19-.22-3.78,1-3.76,3.91,0.1,15.44,0,30.89-.07,46.33Zm-27.43-89.68c-3.19,0-6.39.07-9.58,0-1.93-.06-2.93.41-2.89,2.63,0.12,5.77.09,11.54,0,17.31,0,1.83.5,2.69,2.48,2.66q9.76-.11,19.52,0c2,0,2.54-.77,2.52-2.63-0.08-5.4-.22-10.81,0-16.2,0.16-3.23-1.07-4-4-3.79C172.36,200.39,169.64,200.22,166.94,200.22Z" style="fill: #f1cc5b"/>
    <path d="M210.64,238.39q-0.39-31.21-.78-62.42a15.61,15.61,0,0,1,1.82-.21q33.29,0,66.58,0c1,0,2-.22,2.75.65l0,1q0,26.28-.09,52.56c0,1.44.35,2.95-.4,4.33l0,0c-2.35-2.22-2.85.16-3.58,1.53-4,7.53-7.15,15.24-6,24.13,0.45,3.38,0,6.87.11,10.3,0.09,2.11-.68,2.79-2.75,2.73-3.92-.13-7.86-0.08-11.78,0-3.17,0-5.19,2-5.16,4.92s2.16,4.85,5.26,4.92c2.45,0.06,4.91,0,7.37,0,7.18,0,7.18,0,7,7.2l-16.06.19L224.54,290c0-16.23,0-32.46.14-48.68,0-2.38-.81-2.91-3-2.83C218,238.58,214.32,238.42,210.64,238.39Zm40.65-15.78c3.31,0,6.63-.06,9.94,0,1.79,0,2.67-.37,2.63-2.43-0.12-5.77-.1-11.54,0-17.31,0-1.86-.49-2.63-2.47-2.6q-9.94.14-19.89,0c-2,0-2.54.79-2.52,2.63q0.1,8.65,0,17.31c0,1.73.61,2.43,2.37,2.39C244.66,222.55,248,222.61,251.29,222.61Z" style="fill: #f8ba11"/>
    <path d="M206.24,175.7q-35.18.06-70.35,0.14c-1.41,0-3-.53-4.22.65H97.93c4.44-4.58,8.2-8.5,12-12.37q45.22-46,90.46-91.93c1.27-1.29,2.51-3.43,4.36-.56-1.14.79-.72,2-0.76,3-0.16,4.17.78,8.25,0.82,12.43,0.14,14.71-.36,29.4.5,44.13S206,160.87,206.24,175.7Z" style="fill: #e64c3c"/>
    <path d="M206.24,175.7c-0.26-14.83-.06-29.69-0.92-44.48s-0.36-29.42-.5-44.13c0-4.18-1-8.26-.82-12.43,0-1.06-.39-2.25.76-3L270.51,135c0,1.53.68,2.36,2.3,2.23l0,0,0.84,0.81,34.53,33.17a2,2,0,0,0,2.36,2.26l1.36,1.36c-0.31,2.21-2,1.71-3.41,1.71-9.15,0-18.31,0-27.46,0-0.76-.87-1.8-0.65-2.75-0.65q-33.29,0-66.58,0a15.61,15.61,0,0,0-1.82.21l-2.16-.24c-0.22-.42-0.46-0.47-0.73,0Z" style="fill: #cd1b13"/>
    <path d="M131.85,236.45c1.32-.28,2.62-0.67,4-0.82,5.28-.59,9.1,2.94,9.11,8.32,0,8.6.09,17.2-.05,25.79,0,2.56.71,3.48,3.32,3.35,3.92-.19,7.86,0,11.79-0.06,3.32,0,4.75,2,4.81,4.83s-1.67,4.84-4.79,4.91a109.21,109.21,0,0,1-11,0c-3.27-.26-4.58.81-4,4.07a20.86,20.86,0,0,1,.12,2.57,1.79,1.79,0,0,0,0,.7c0.38,0.86,1.17.77,1.88,0.76,4.78,0,9.56-.07,14.34-0.11a5.16,5.16,0,0,1,3.32,6.21c-0.67,3.1-3,4.21-6.12,4.09s-6.41.16-9.58-.08c-3-.22-4.21.61-4,3.82,0.28,3.91-.08,7.87.12,11.8,0.14,2.66-.88,3.4-3.39,3.27-3.56-.18-7.13-0.14-10.69,0-2.12.08-2.81-.75-2.76-2.8,0.1-4.42,0-8.85.06-13.28,0-2.08-.73-2.79-2.79-2.78q-15.86.1-31.72,0c-1.92,0-2.6.69-2.56,2.59,0.09,4.55,0,9.1.05,13.65,0,1.86-.54,2.67-2.51,2.61-3.44-.11-6.89-0.13-10.33,0-2.18.08-2.73-.88-2.69-2.86,0.09-4.3-.09-8.61.07-12.91,0.1-2.49-.86-3.15-3.21-3.1q-10,.19-19.92,0c-4.55-.07-7-4.08-5-7.83,1-1.88,2.51-2.41,4.56-2.39,6.88,0.08,13.77-.12,20.65.1,3.51,0.11,2.87-2.08,2.89-4.09s0.45-4.13-3-4c-6.75.24-13.52,0.09-20.28,0.06-3.58,0-5.55-1.77-5.58-4.87S48.75,273,52.31,273c6.76,0,13.53-.09,20.29,0,2.42,0,3.36-.71,3.12-3.16-0.18-1.83.18-3.72-.07-5.52-1.23-8.73,1.89-16.38,5.66-23.9,0.44-.88.74-2,1.87-2.08,1.4-.12,1.62,1.22,2.22,2.11,5.79,8.48,6.57,18,5.72,27.84-0.32,3.7.78,4.89,4.63,4.78,9.7-.29,19.42-0.17,29.13,0,2.58,0,3.4-.76,3.36-3.35-0.14-8.23.12-16.48-.13-24.71C128,241.36,128.79,238.51,131.85,236.45Zm-22.34,54.36c5.52,0,11-.1,16.56,0,3.46,0.08,2.42-2.35,2.46-4.07s0.88-4-2.53-4q-16.19.19-32.38,0c-3.46,0-2.41,2.36-2.44,4.07s-0.92,4.11,2.51,4C99,290.68,104.24,290.81,109.51,290.81Z" style="fill: #99afab"/>
    <path d="M271,290c0.21-7.2.21-7.2-7-7.2-2.46,0-4.91,0-7.37,0-3.1-.07-5.23-2.1-5.26-4.92s2-4.88,5.16-4.92c3.93,0,7.86-.1,11.78,0,2.07,0.07,2.84-.62,2.75-2.73-0.14-3.43.34-6.92-.11-10.3-1.19-8.89,1.95-16.6,6-24.13,0.73-1.37,1.23-3.75,3.58-1.53l0.1,0.19c2,3.94,3.95,7.92,6,11.82a12,12,0,0,1,1.43,6c-0.09,5.9,0,11.81-.07,17.71,0,2.2.61,3,2.91,3q12.36-.17,24.72,0c2.4,0,2.85-.94,2.82-3.06-0.1-7.38,0-14.76,0-22.14,0-5.2,2.11-7.29,7.35-7.33s7.5,2,7.5,7.13c0,7.13.13,14.27-.06,21.4-0.08,3,.78,4.08,3.91,4,8.85-.19,17.71-0.08,26.56-0.06,3.76,0,5.64,1.61,5.68,4.71,0,3.37-1.86,5.09-5.73,5.1-9,0-18,.17-26.93-0.07-3.71-.1-3.38,2-3.49,4.43s0.35,3.75,3.36,3.68c9-.2,18-0.08,26.93-0.07,3.8,0,5.87,1.8,5.83,5S367,301,363.43,301c-8.73.06-17.47,0.18-26.19-.06-3.37-.1-4.25,1-4,4.19,0.26,3.92,0,7.87.11,11.8,0.09,2.3-.78,3.06-3,2.91-3.78-.26-8.66,1.52-11.08-0.67s-0.72-7.2-.79-11c-0.14-7.17,0-7.18-7.17-7.18-6.76,0-13.53.07-20.29,0-2.22,0-3.07.67-3,2.95,0.14,4.42,0,8.85.06,13.28,0,1.86-.59,2.67-2.54,2.62-3.93-.1-7.87-0.12-11.8,0-2.19.07-2.71-.87-2.67-2.85,0.1-4.3-.1-8.61.08-12.91,0.1-2.49-.85-3.22-3.21-3.1-3.31.16-6.64-.07-10,0.07-3.1.13-5.3-.9-6.17-4s0.69-4.9,3.13-6.31c2.55,0,5.11.25,7.65,0.09C265.37,290.62,268.3,291.68,271,290Zm32.13,0.76c4.05,0,8.11-.21,12.15.07,3.2,0.22,3.33-1.48,3.17-3.8-0.15-2.06.78-4.44-3-4.33-8.22.24-16.45,0.21-24.66,0-3.63-.09-3,2.16-3.17,4.35-0.14,2.49.37,3.93,3.38,3.76C295,290.63,299.07,290.8,303.12,290.8Z" style="fill: #99afab"/>
    <path d="M210.64,238.39c3.69,0,7.38.19,11.06,0.07,2.17-.07,3,0.46,3,2.83-0.13,16.23-.11,32.45-0.14,48.68l-29.28,0-0.21-1.26c0-15.44.18-30.89,0.07-46.33,0-3,.57-4.13,3.76-3.91C202.78,238.7,206.72,238.43,210.64,238.39Z" style="fill: #59311e"/>
    <path d="M281,176.44c9.15,0,18.31,0,27.46,0,1.37,0,3.1.5,3.41-1.71l3.21,2.67H281C281,177.1,281,176.77,281,176.44Z" style="fill: #d2322b"/>
    <path d="M161.22,290.73c-4.78,0-9.56.09-14.34,0.11-0.71,0-1.5.1-1.88-.76a1.52,1.52,0,0,0,.69-0.18l15.51,0.26Q161.21,290.44,161.22,290.73Z" style="fill: #eaf0f4"/>
    <path d="M271,290c-2.68,1.63-5.62.57-8.43,0.75-2.54.16-5.1,0-7.65-.09q0-.24,0-0.47Z" style="fill: #eaf0f4"/>
    <path d="M272.81,137.18c-1.62.14-2.3-.7-2.3-2.23Z" style="fill: #d2322b"/>
    <path d="M310.51,173.39a2,2,0,0,1-2.36-2.26Z" style="fill: #d2322b"/>
    <path d="M195.05,288.68l0.21,1.26-0.89,0Z" style="fill: #f9da70"/>
    <path d="M273.62,138l-0.84-.81Z" style="fill: #d2322b"/>
    <polygon points="280.61 234.52 280.51 234.33 280.54 234.31 280.61 234.52" style="fill: #d2322b"/>
    <path d="M166.94,200.22c2.7,0,5.42.17,8.1,0,2.94-.24,4.17.56,4,3.79-0.27,5.39-.13,10.8,0,16.2,0,1.86-.57,2.66-2.52,2.63q-9.76-.11-19.52,0c-2,0-2.5-.83-2.48-2.66,0.08-5.77.11-11.54,0-17.31,0-2.23,1-2.69,2.89-2.63C160.56,200.29,163.75,200.22,166.94,200.22Z" style="fill: #f1ecdd"/>
    <path d="M207,175.68c0.27-.42.51-0.37,0.73,0Z" style="fill: #c80a12"/>
    <path d="M145.69,289.9a1.52,1.52,0,0,1-.69.18,1.8,1.8,0,0,1,0-.7Z" style="fill: #f9da70"/>
    <path d="M251.29,222.61c-3.31,0-6.63-.06-9.94,0-1.75,0-2.38-.66-2.37-2.39q0.09-8.65,0-17.31c0-1.84.55-2.66,2.52-2.63q9.94,0.12,19.89,0c2,0,2.5.74,2.47,2.6-0.09,5.77-.11,11.54,0,17.31,0,2.06-.84,2.48-2.63,2.43C257.92,222.55,254.6,222.61,251.29,222.61Z" style="fill: #f1ecdc"/>
  </g>
</svg>
