<svg id="Layer_1" data-name="Layer 1" xmlns="http://www.w3.org/2000/svg" viewBox="0 0 80 80"><defs><style>.cls-1{fill:#fff;}.cls-2,.cls-3{fill:none;stroke:#fff;stroke-miterlimit:10;}.cls-2{stroke-width:3px;}.cls-3{stroke-width:4px;}</style></defs><title>ICONS</title><path class="cls-1" d="M56.67,46.55H53.21c0,1.67,0,6,0,6H47.59v3.47h5.63s0,4.37,0,6h3.47V56h5.63V52.59H56.67v-6h0Z"/><path class="cls-1" d="M47.6,44.51A21.46,21.46,0,0,0,13.95,62.18c0,1-.46-0.09-1.49-0.09s-2.21,1.12-2.21.09A25.16,25.16,0,0,1,49.49,41.31"/><path class="cls-1" d="M35.42,40A14.6,14.6,0,1,1,50,25.42,14.62,14.62,0,0,1,35.42,40h0Zm0-25.5a10.9,10.9,0,1,0,10.9,10.9,10.91,10.91,0,0,0-10.9-10.9h0Zm0,0"/><circle class="cls-2" cx="54.94" cy="54.32" r="13.37"/><line class="cls-3" x1="10.2" y1="63.45" x2="45.08" y2="63.35"/></svg>