<svg xmlns="http://www.w3.org/2000/svg" width="395.68" height="395.68" viewBox="0 0 395.68 395.68">
  <title>icons[1]</title>
  <g>
    <rect x="112" y="36.94" width="14.45" height="38.31" rx="6.06" ry="6.06" style="fill: #e8e2e2"/>
    <rect x="156.65" y="36.94" width="14.45" height="38.31" rx="6.06" ry="6.06" style="fill: #e8e2e2"/>
    <rect x="208.34" y="36.94" width="14.45" height="38.31" rx="6.06" ry="6.06" style="fill: #e8e2e2"/>
    <rect x="254.68" y="36.94" width="14.45" height="38.31" rx="6.06" ry="6.06" style="fill: #e8e2e2"/>
    <rect x="296.88" y="36.94" width="14.45" height="38.31" rx="6.06" ry="6.06" style="fill: #e8e2e2"/>
    <polygon points="307.13 358.74 63.83 351.36 80.91 71.64 324.22 79.03 307.13 358.74" style="fill: #efef18"/>
    <rect x="79.72" y="57.44" width="252.13" height="290.05" rx="13.16" ry="13.16" style="fill: #efefdf"/>
    <path d="M326.66,61.18c0.79,94.94,1.58,189.55,2.38,284.49-10.3.56-20.6,0.95-30.89,1.5-29.31-.56-58.51-1.19-87.82-1.75,1.78-93.55,2.45-187.19,5.45-280.74V58.92h88.9C312,58.92,319.33,60.21,326.66,61.18Z" style="fill: #f4f3e1"/>
    <rect x="113.05" y="102.71" width="184.03" height="13.28" style="fill: #ccc6c4"/>
    <rect x="113.78" y="194.57" width="184.03" height="13.28" style="fill: #d3c1c1"/>
    <rect x="114.41" y="241.71" width="184.03" height="13.28" style="fill: #d3c1c1"/>
    <rect x="116.96" y="287.56" width="184.03" height="13.28" style="fill: #d3c1c1"/>
    <rect x="113.78" y="147.01" width="184.03" height="13.28" style="fill: #d3c1c1"/>
  </g>
</svg>
