<?xml version="1.0" encoding="iso-8859-1"?>
<!-- Generator: Adobe Illustrator 17.1.0, SVG Export Plug-In . SVG Version: 6.00 Build 0)  -->
<!DOCTYPE svg PUBLIC "-//W3C//DTD SVG 1.1//EN" "http://www.w3.org/Graphics/SVG/1.1/DTD/svg11.dtd">
<svg xmlns="http://www.w3.org/2000/svg" xmlns:xlink="http://www.w3.org/1999/xlink" version="1.1" id="Capa_1" x="0px" y="0px" viewBox="0 0 512 512" style="enable-background:new 0 0 512 512;" xml:space="preserve" width="512px" height="512px">
<g>
	<path d="M312,0H200c-13.234,0-24,10.766-24,24v112c0,13.234,10.766,24,24,24h48v201.376c-9.311,3.302-16,12.195-16,22.624v112h-8   c-4.418,0-8,3.582-8,8s3.582,8,8,8h64c4.418,0,8-3.582,8-8s-3.582-8-8-8h-8V384c0-10.429-6.689-19.322-16-22.624V160h48   c13.234,0,24-10.766,24-24V24C336,10.766,325.234,0,312,0z M248,496V384c0-4.411,3.589-8,8-8s8,3.589,8,8v112H248z M320,136   c0,4.411-3.589,8-8,8H200c-4.411,0-8-3.589-8-8V24c0-4.411,3.589-8,8-8h112c4.411,0,8,3.589,8,8V136z" fill="#d32f2f"/>
	<path d="M268,32h-44c-4.418,0-8,3.582-8,8v80c0,4.418,3.582,8,8,8s8-3.582,8-8V48h36c11.028,0,20,8.972,20,20s-8.972,20-20,20h-12   c-4.418,0-8,3.582-8,8s3.582,8,8,8h12c19.851,0,36-16.149,36-36S287.851,32,268,32z" fill="#d32f2f"/>
</g>
<g>
</g>
<g>
</g>
<g>
</g>
<g>
</g>
<g>
</g>
<g>
</g>
<g>
</g>
<g>
</g>
<g>
</g>
<g>
</g>
<g>
</g>
<g>
</g>
<g>
</g>
<g>
</g>
<g>
</g>
</svg>
