<svg id="Layer_1" data-name="Layer 1" xmlns="http://www.w3.org/2000/svg" viewBox="0 0 234.6 127.32"><defs><style>.cls-1{fill:none;stroke:#2559a5;stroke-miterlimit:10;}</style></defs><title>rain</title><line class="cls-1" x1="204.61" y1="42.97" x2="207.58" y2="57.27"/><line class="cls-1" x1="211.83" y1="77.71" x2="214.8" y2="92.01"/><line class="cls-1" x1="101.13" y1="26.07" x2="104.1" y2="40.37"/><line class="cls-1" x1="108.35" y1="60.81" x2="111.32" y2="75.11"/><line class="cls-1" x1="114.28" y1="89.35" x2="117.25" y2="103.65"/><line class="cls-1" x1="138.1" y1="45.26" x2="141.07" y2="59.56"/><line class="cls-1" x1="131.72" y1="14.56" x2="134.69" y2="28.85"/><line class="cls-1" x1="144.94" y1="78.18" x2="147.91" y2="92.48"/><line class="cls-1" x1="152.15" y1="112.92" x2="155.13" y2="127.22"/><line class="cls-1" x1="169.32" y1="26.07" x2="172.29" y2="40.37"/><line class="cls-1" x1="163.92" y1="0.1" x2="166.89" y2="14.4"/><line class="cls-1" x1="176.54" y1="60.81" x2="179.51" y2="75.11"/><line class="cls-1" x1="183.06" y1="92.2" x2="186.03" y2="106.5"/><line class="cls-1" x1="0.49" y1="25.18" x2="3.46" y2="39.48"/><line class="cls-1" x1="7.71" y1="59.92" x2="10.68" y2="74.22"/><line class="cls-1" x1="13.73" y1="89.8" x2="16.7" y2="104.09"/><line class="cls-1" x1="34.74" y1="31.99" x2="37.71" y2="46.28"/><line class="cls-1" x1="40.33" y1="59.93" x2="43.3" y2="74.23"/><line class="cls-1" x1="45.7" y1="85.78" x2="48.67" y2="100.07"/><line class="cls-1" x1="51.51" y1="112.03" x2="54.48" y2="126.33"/><line class="cls-1" x1="68.68" y1="25.18" x2="71.65" y2="39.48"/><line class="cls-1" x1="75.9" y1="59.92" x2="78.87" y2="74.22"/><line class="cls-1" x1="81.72" y1="88.67" x2="84.69" y2="102.97"/><line class="cls-1" x1="198.96" y1="14.97" x2="201.93" y2="29.26"/><line class="cls-1" x1="231.14" y1="33.89" x2="234.11" y2="48.19"/><line class="cls-1" x1="225.49" y1="5.89" x2="228.46" y2="20.18"/></svg>