<svg xmlns="http://www.w3.org/2000/svg" width="395.68" height="395.68" viewBox="0 0 395.68 395.68">
  <title>icons[1]</title>
  <g>
    <path d="M358.05,67.29l0,1.2c-2.13,2.19-4.91,1.73-7.51,1.73q-152.48.06-305,0c-2.23,0-4.51.17-6.61-.89a1.55,1.55,0,0,1-.72-2H358.05Z" style="fill: #404040"/>
    <path d="M34.42,269.71l-0.57.06-0.46-.33v-196a1.54,1.54,0,0,1,2,.73c1.22,2.5.9,5.19,0.9,7.81q0,89.56,0,179.13C36.31,264,37.11,267.29,34.42,269.71Z" style="fill: #404040"/>
    <path d="M34.36,73.09l-1,.33c0-3.34-1.16-7.63,4.9-6.13a4.81,4.81,0,0,1,.22.82,1,1,0,0,1-.22.41A6.65,6.65,0,0,1,34.36,73.09Z" style="fill: #e0e0e0"/>
    <path d="M356.86,274.4c-2.06,1.33-4.37.68-6.55,0.69q-57.72.07-115.43,0.05c-2.22,0-4.44.28-6.66,0.43-1,12.66-1.38,25.31.21,38l-0.24-.21c3,1.85,6.33.68,9.49,0.81,10.76,0.43,21.55-.57,32.31.57l0-.08c0.63,4.26,1.13,8.51-.22,12.73q-31.74.66-63.47,0c-2.41-2.27-1.77-5.28-1.79-8-0.14-14.44.12-28.88-.16-43.32a3.17,3.17,0,0,1,1-2.1c7.66-2.59,15.58-.63,23.35-1.29,39.65,0,79.31,0,119,.05C350.73,272.65,354.16,271.78,356.86,274.4Z" style="fill: #132439"/>
    <path d="M356.86,274.4l-107.68-.23-20.81,0c1.54-3.9,5-2.67,7.79-2.68,29-.12,58,0,86.95-0.11,10.59,0,21.21.65,31.77-.5a8.36,8.36,0,0,0,2.51-2.21c1.57-2.38,1.36-5.07,1.36-7.72q0-89.36,0-178.72c0-3,.55-6.23-2.43-8.4-2.76-2.22-6-2.24-9.32-2.24q-150.55,0-301.1,0c-6.92,0-8.29,1.3-8.3,8.23q-0.1,91.49,0,183c0,2-.29,4.12,1.17,5.85a17.23,17.23,0,0,0,2.62,2.16c2.79,0.94,5.67.56,8.51,0.56q61.2,0,122.4,0c3,0,6.15-.57,9,1.2a1.34,1.34,0,0,1,.07,2.07c-15.9.55-31.8,0.18-47.7,0.22q-43.75.11-87.5,0c-2.22,0-4.49.4-6.67-.41a5.4,5.4,0,0,1-5-4.8q0-98.31-.07-196.62a5.33,5.33,0,0,1,3.94-4.57l319.8,0c3.61,1.46,4.28,4.45,4.28,7.92q0,94.94,0,189.88C362.34,270.15,361.59,273.66,356.86,274.4Z" style="fill: #050508"/>
    <path d="M39.46,274.51c8.56-.11,17.13-0.3,25.69-0.31q58.18-.07,116.36,0c7.25-2.53,14.54-2.14,21.85-.29,0.76,4.15-2.74,3-4.58,3.37-4.5.79-9.2-.54-13.65,1.06-2.48,1.72-1.7,4.34-1.79,6.67-0.33,9.06.61,18.14-.54,27.19a3.6,3.6,0,0,1-1.34,1.66l-1.06-.24c0.09-11.6,0-23.19.34-34.79,0.13-5.17-3.49-3.47-5.86-3.47Q110.44,275.18,46,275.2C43.82,275.2,41.51,275.88,39.46,274.51Z" style="fill: #233e5b"/>
    <path d="M206.14,327l63.68,0c0.37-.6.74-0.58,1.1,0,0,1.91-1.45,1.6-2.58,1.59q-31.73-.13-63.45-0.3l-0.49-.66,0.31-.77A1,1,0,0,1,206.14,327Z" style="fill: #001028"/>
    <path d="M204.87,327l0,1.31q-32.46.79-64.92,0a1.47,1.47,0,0,1,.63-2c2-1.17,4.31-1.18,6.55-1.19q25.11-.1,50.22,0C200,325.11,202.75,324.89,204.87,327Z" style="fill: #0d2a47"/>
    <path d="M138.82,313.85l41.59-.3-0.11.12c-0.39,2.8-2.75,2.78-4.62,2.8-11.53.15-23.08,0.72-34.6-.3C140,315.76,138.85,315.33,138.82,313.85Z" style="fill: #001435"/>
    <path d="M270,314.7c-12.09,0-24.19.08-36.28,0-1.9,0-4.12.74-5.51-1.42,12.1,0.08,24.2.1,36.29,0.28C266.31,313.63,268.53,312.49,270,314.7Z" style="fill: #000012"/>
    <path d="M228.43,313.52c-1.53-.82-1.46-2.29-1.46-3.71q0-15.51,0-31c0-1.24.1-2.44,1.25-3.24Z" style="fill: #00061d"/>
    <path d="M138.82,313.85l1.2,1A10.63,10.63,0,0,1,140,327v1.3c-3.61-.25-1.91-3.06-1.88-4.59C138.15,320.44,137.08,317,138.82,313.85Z" style="fill: #132f4c"/>
    <path d="M270.93,327h-1.1q0.05-6.2.1-12.4C272.56,318.57,270.72,322.87,270.93,327Z" style="fill: #000d24"/>
    <path d="M140,327q0-6.09,0-12.17c11.52,0,23,0,34.57-.11,1.93,0,4.09.74,5.72-1.06l1.43-.27c1.22-10.22.17-20.48,0.56-30.71,0.09-2.38-.6-4.83.57-7.12,6.93-.65,14,1.36,20.82-1.17l0.6-.36,0.62,0.32,0,1.23c1.28,14.74.25,29.51,0.52,44.26,0,2.38.61,4.86-.56,7.17l0,0Z" style="fill: #213b56"/>
    <path d="M181.59,273.13q-67.55,0-135.1-.06c-2.35,0-4.93.85-7-1.08,2.08-2.28,4.87-1.8,7.47-1.8q151.23-.06,302.45,0c2.59,0,5.38-.47,7.48,1.78-2.08,2-4.66,1.1-7,1.1q-57.53.08-115.06,0.08c-2.14,0-4.52-.84-6.42,1l-23.48.22,0,0c-5.55-1.38-11.21-.25-16.8-0.64C185.94,273.54,183.68,274.25,181.59,273.13Z" style="fill: #0a0428"/>
    <path d="M204.91,327q0-25.71,0-51.43c2,1.81,1.15,4.2,1.16,6.33,0.07,15,0,30.05,0,45.08Z" style="fill: #102034"/>
    <path d="M225.75,296.82a3.51,3.51,0,0,1-1,1.37c-1,.26-1.32-0.6-1.21-1.36a1.47,1.47,0,0,1,1-1A3.1,3.1,0,0,1,225.75,296.82Z" style="fill: #0e1f35"/>
    <path d="M38.16,270.71c-2.65-1.51-2.27-4.08-2.27-6.51q0-92.7,0-185.4c0-7,2.06-9,9.16-9q153,0,305.94,0c2.7,0,5.31-.11,7.06,2.46,1.34,2.66,1.21,5.54,1.22,8.39q0,90.63,0,181.27c0,3.22.53,6.64-2.45,9.08a19.36,19.36,0,0,1-5.48.29q-153.58,0-307.16,0C42.17,271.24,40.09,271.71,38.16,270.71Z" style="fill: #1b1464"/>
    <path d="M356.83,270.66c1.63-2.6,1.22-5.5,1.22-8.33q0-95.06,0-190.11c2.57,1.81,2.3,4.56,2.3,7.18q0,92,0,184c0,2.66.08,5.34-2.24,7.28A0.79,0.79,0,0,1,356.83,270.66Z" style="fill: #1c1568"/>
    <path d="M356.83,270.66l1.3,0L356.87,272,39.47,272l-1.31-1.28Z" style="fill: #1c156a"/>
    <path d="M181.59,273.13c7.76,0.67,15.67-1.46,23.33,1.21l-1.24.06-22.17-.25A4.91,4.91,0,0,0,181.59,273.13Z" style="fill: #11212c"/>
    <path d="M182.86,275.57c0,10.71,0,21.42,0,32.14,0,1.93.74,4.09-1.1,5.7,0-10.71,0-21.42,0-32.13C181.74,279.34,181.07,277.18,182.86,275.57Z" style="fill: #16324e"/>
    <path d="M349.6,77.05l2.3,0L352.68,78a24.79,24.79,0,0,1,1,8.47q0,85.12,0,170.24a25.52,25.52,0,0,1-.52,6.69c-0.78,4.46-4.33,3.59-7.23,3.6q-28.73.1-57.47,0c-26.9-.07-53.8.23-80.68-0.15a4,4,0,0,1-2-1c-2.19-3.95-1-8.26-1.26-12.41-0.37-7,.56-14.05-0.57-21a6.92,6.92,0,0,1-.55-3,3.34,3.34,0,0,1,2.3-1.61,9.26,9.26,0,0,1,1.81-.25c9.88-1,17.69-6.35,25.23-12.21a76.77,76.77,0,0,0,6.62-6.26,13.85,13.85,0,0,0,3.55-4.47c0.19-.52.4-1,0.6-1.55,0.66-3.09.21-6.23,0.35-9.33a12.1,12.1,0,0,1,.27-2.31c0.17-.8.81-1.51,0.53-2.41a1.14,1.14,0,0,1-1.73.84c-2.32-2.74-1.56-5.9-1.24-9,0.77-3.13,1.64-6.26,0-9.4a8.6,8.6,0,0,1-.87-1.58,11.66,11.66,0,0,1-.66-3.59c-0.08-2.1,0-4.2-.14-6.29-2.08-7-4.72-8.31-11.37-9.07-7.56-.86-15.77-0.27-22.11-6-1-2.14-.83-4.4-0.83-6.64q0-26.92,0-53.84c0-2.62-.35-5.35,1.49-7.64,2.34-1.7,5.06-1.34,7.68-1.35q63.29-.05,126.59,0C344.24,75.38,347.18,75,349.6,77.05Z" style="fill: #e9e9e1"/>
    <path d="M45.66,267.24L40.77,267c-1.73-2.12-1.23-4.65-1.23-7.05q0-88.57,0-177.15c0-4.23-.35-8.6,6-8.12q71.57,0,143.13,0c2.42,0,4.91-.42,7.23.68a1.4,1.4,0,0,1,.33,2.08c-3.09,2.2-6.66,1.62-10.08,1.62q-65.21.07-130.43,0c-2,0-4.08.07-6.12,0-3.79-.08-5.7,1.59-5.58,5.48,0.05,1.63,0,3.26,0,4.9Q44,171.23,44,253c0,1.43.1,2.87,0,4.28-0.32,4.7,1.87,6.55,6.51,6.53,12.65-.06,25.31,0,38,0,29,0,58-.07,86.95.1,3.12,0,7.16-1.29,8.82,3.22-1.33.74-2.78,0.49-4.19,0.49H49.29A9.84,9.84,0,0,1,45.66,267.24Z" style="fill: #fefef8"/>
    <path d="M196.34,76.08L52.93,75.92c-2.44,0-4.88-.05-7.32-0.08a1.15,1.15,0,0,1,1-1.73q149-.22,298,0c1.7,0,4.24-1.38,5,1.73v1.21l-142.24,0a2.84,2.84,0,0,1-1.76.66C202.5,77.3,199.16,78.1,196.34,76.08Z" style="fill: #efefe4"/>
    <path d="M349.61,75.84c-1.63-1.91-3.82-1-5.72-1q-148.84-.06-297.67,0c-1.83.43-3.66,0.85-5.4-.31,2.07-2,4.66-1.1,7-1.1q148.22-.08,296.43.12C345.8,73.58,349.77,70.73,349.61,75.84Z" style="fill: #10095d"/>
    <path d="M45.66,267.24q66.48,0,133,0c1.82,0,3.64-.17,5.46-0.27,7.32-3.33,14.77-2.27,22.23-.65,48.53,0.12,97.07.23,145.6-.06a3.39,3.39,0,0,1,2.31.45c-1.53,2.51-4,1.52-6.11,1.52q-148.62.09-297.23,0C49.1,268.25,47.18,268.73,45.66,267.24Z" style="fill: #29236d"/>
    <path d="M40.81,74.55l5.4,0.31a4.49,4.49,0,0,1-.61,1c-3-.33-5.28-0.58-5.27,4q0.24,92.67.13,185.35a10.48,10.48,0,0,0,.31,1.79l-1.36-.15c-0.79-1.54-.48-3.2-0.48-4.81q0-90.55,0-181.11c0-1.61-.28-3.27.43-4.83Z" style="fill: #1e1765"/>
    <path d="M354.23,266.69l-0.57.1-0.57-.05c-0.91-1.45-.39-3.06-0.53-4.6q0-89,0-178c0-2.2.56-4.49-.54-6.61l-0.09-.5c4.07-2.38,1.24,2.23,2.62,2.58,0.73,1.55.44,3.21,0.44,4.82q0,87,0,174c0,1.61.3,3.27-.46,4.81Z" style="fill: #cbcbd2"/>
    <path d="M39.37,76.08q0,95.38,0,190.75c-2-1.85-1.08-4.24-1.08-6.37q-0.08-89,0-178C38.34,80.33,37.46,77.95,39.37,76.08Z" style="fill: #10085d"/>
    <path d="M354.5,263.27q0-91.84,0-183.67c1.84,1.89,1,4.26,1,6.42q0.07,85.43,0,170.85C355.57,259,356.37,261.39,354.5,263.27Z" style="fill: #000052"/>
    <path d="M206.14,267H184.08c-2-2.07-4.64-1.15-7-1.15-42.86-.06-85.73-0.11-128.59.06-4.91,0-6.67-1.11-6.65-6.38q0.27-88.18,0-176.35c0-5,1.57-6.14,6.29-6.12,49.4,0.15,98.79.09,148.19,0.09,2.12,2.1,1.91,4.85,1.92,7.46,0.08,16.29.1,32.59,0,48.88,0,3.37.41,7.15-3.76,8.85-4.26-.46-3.37-3.91-3.45-6.45-0.3-9.87.14-19.76-.26-29.61a5.46,5.46,0,0,0-.81-1.59,13.84,13.84,0,0,1-1.21-1.17c-1.28-1.61-2.33-3.47-4.43-4.24a4.29,4.29,0,0,0-4.61.3,9.93,9.93,0,0,0-4.62,4.88c-0.72,16.92-.26,33.82-0.21,50.72a4.86,4.86,0,0,1-2.75,5.44c-3.5,1.56.13,3.85-.55,5.7-0.67,4.91-3.86,4.28-6.63,2.49-4.08-2.63-8-5.64-9.74-10.53-0.07-.5.49-1.33,0.26-1.36a4.23,4.23,0,0,0-3.31,1.08c-1.68,1.65-3.23,3.41-4.75,5.2a7.16,7.16,0,0,1-1.69,1.43c-1,1.2-.4,2.22.36,3.22,0.76,0.76,1.59,1.42,2.38,2.13,7.23,6.42,13.1,14.22,20.79,20.18a6.13,6.13,0,0,1,2.21,5.41,34.73,34.73,0,0,0-.78,7.42,0.39,0.39,0,0,0,.2.29,2.69,2.69,0,0,0,.55-0.18,4,4,0,0,1,2,2.45c4.61,10.49,14.28,15,23.59,19.87,2.27,1.19,5.23,1.16,6.64,3.83l1.24,1c1.31,9.43.18,18.92,0.59,28.37,0.11,2.38-.64,4.85.61,7.13h0q0.6,0.4.4,0.79A0.57,0.57,0,0,1,206.14,267Z" style="fill: #fefef4"/>
    <path d="M170.61,160.41c1.44-1,3-1.83,3.39-3.78-0.68-17.79-.17-35.6-0.27-53.39a3,3,0,0,1,.74-1.61c1.75-1,2.62-3.14,4.82-3.47a12,12,0,0,0,6-.06,5,5,0,0,1,3.85,4.3c1.7,2.29,1.59,5,1.6,7.61,0,10.79-.06,21.58.06,32.33,0.22,1.38,1,1.16,1.9.59a29.91,29.91,0,0,0,4.64-1.89c5.64,0.72,7.9,3,9.66,9.94,1.88,23.67.48,47.38,0.88,71.07,0,2.42.19,4.91-1.67,6.89l-2.47.29c-9.52-2.5-17.63-7.6-25.14-13.75-3.16-2.58-5.95-5.49-6.47-9.84a6.1,6.1,0,0,0-2-6.42,5.51,5.51,0,0,1,.32-3.21c0.52-6.27-6-6.68-8.74-10.22-4.34-5.5-9.56-10.29-14.41-15.39-1.69-2.32-1.17-4.93-1-7.5,0.84-2.57,3.13-3.92,4.84-5.76,1.48-1.67,3.14-1.1,4.82-.41a30.28,30.28,0,0,0,10.63,11.16c3.43,2.19,4.28.7,3.89-2.66C169.91,163.6,169.64,162,170.61,160.41Z" style="fill: #f8eb31"/>
    <path d="M243.12,179.91c0,3.43-.73,6.91.83,10.21,1.26,1.12.59,2.61,0.77,3.94-0.21,3.48.44,7-.39,10.46l-0.43,0c-0.75,2-2.7,3.15-3.37,5.16-7,8.87-16.72,13.79-26.67,18.37a11.43,11.43,0,0,1-6.49.9c-1-1.7-.55-3.59-0.57-5.39-0.34-23.65.62-47.32-.54-71a19.33,19.33,0,0,1,.41-3,3.08,3.08,0,0,1,2-3.78c2.11-.39,4-0.19,5.62,1.51a8.56,8.56,0,0,0,1.8,1.49c4.41-4.22,8.07,1.55,12.28.86,7.33-1.21,11,1.71,13.06,9.65-0.85,2.25-.22,4.59-0.41,6.87,0.37,1.25-.82,2.8.76,3.81a3.73,3.73,0,0,0,.92.26C244.14,173.4,243.51,176.66,243.12,179.91Z" style="fill: #e4d522"/>
    <path d="M352,77.51c1.7,1.15,1.13,2.93,1.13,4.46q0,89.48,0,179c0,0.81-.14,1.62-0.21,2.43-0.35.48-.67,0.49-1,0Q352,170.42,352,77.51Z" style="fill: #eeeee4"/>
    <path d="M351.93,263.32a9.48,9.48,0,0,1,1,0q0.09,1.69.18,3.37c-2.44.16-4.88,0.47-7.31,0.47q-67.69,0-135.37,0c-1.42,0-2.84-.17-4.26-0.27q0-.6,0-1.19,69.61,0,139.23-.07C347.65,265.69,350.94,267.34,351.93,263.32Z" style="fill: #f6f7ea"/>
    <path d="M207.25,147.83l0.11,81.08-1.2,0c0-22.39-.15-44.79.08-67.18,0-4.18-2.72-8.31-.19-12.49a1,1,0,0,1-.33-0.85,0.53,0.53,0,0,1,.16-0.47A1.48,1.48,0,0,1,207.25,147.83Z" style="fill: #e2d320"/>
    <path d="M207.25,147.83q-0.55.17-1.08,0.38c-1.8-2.66-2-5.68-2-8.77,0-18.1,0-36.2,0-54.29,0-2.8-.3-5.76,2-8.05h1.22q0,31.18,0,62.37c0,2.14-.81,4.55,1.28,6.3Z" style="fill: #e7e7df"/>
    <path d="M206.14,265.76c-2.4-2.85-1.08-6.24-1.15-9.35-0.2-8.71-.06-17.43-0.05-26.15,2.46,3.29,1,7.05,1.13,10.57C206.3,249.13,206.14,257.45,206.14,265.76Z" style="fill: #f0f0f4"/>
    <path d="M244.32,204.52l-0.17-11c0.39-.54.79-0.57,1.18,0C244.88,197.15,246.39,201,244.32,204.52Z" style="fill: #e9ebf8"/>
    <path d="M243.12,179.91l-0.41-9.69C245,173.36,244.53,176.62,243.12,179.91Z" style="fill: #e9ebfb"/>
    <path d="M240.46,166.52c0.34-2.41-.9-5,1-7.23l0.17,7.24Q241,167.37,240.46,166.52Z" style="fill: #e3d204"/>
    <path d="M240.52,209.65c-0.18-2.57,1.59-3.88,3.37-5.16C244.48,207.32,242.12,208.23,240.52,209.65Z" style="fill: #e4d417"/>
    <path d="M240.46,166.52h1.16l0.17,3.44a2.83,2.83,0,0,1-.35,1.12c-0.55.59-.94,0.28-1-0.41C240.43,169.29,240.46,167.9,240.46,166.52Z" style="fill: #e3d313"/>
    <path d="M245.33,193.49h-1.18l-0.21-3.36a3.33,3.33,0,0,1,.35-1.13c0.47-.59,1-0.48,1,0.3C245.37,190.69,245.33,192.09,245.33,193.49Z" style="fill: #e9eaf0"/>
    <path d="M206.14,77.1q0,35.56,0,71.11,0,0.53-.12,1.06c-3.29-2.37-3.89-8.36-9.76-7.26a1.54,1.54,0,0,1-2.37,0c2.58-1.74,2.45-4.35,2.44-7q-0.07-28.92,0-57.85c0-.34,0-0.68,0-1C199.62,76.31,203.08,74.8,206.14,77.1Z" style="fill: #fefefd"/>
    <path d="M174.46,101.62q0,24.16-.09,48.31c0,2.23-.24,4.46-0.37,6.69-1.53-1.74-.91-3.86-0.91-5.81q-0.07-21.51,0-43C173.11,105.69,172.2,103.27,174.46,101.62Z" style="fill: #fefefe"/>
    <path d="M193.92,142l2.37,0-3.73,2.38c-2,0-2.22-1.53-2.23-2.93-0.14-12.15-.28-24.3.07-36.45a4,4,0,0,1,1-2.18c1.9,1.56,1.21,3.72,1.22,5.66,0.06,9.29,0,18.57.06,27.86C192.71,138.27,192,140.44,193.92,142Z" style="fill: #fefefa"/>
    <path d="M191.41,102.83c0,11.95,0,23.9.06,35.84,0,1.93-.73,4.1,1.09,5.72a3.7,3.7,0,0,1-2.24,2.53c-1.54-7.2-.59-14.48-0.62-21.71,0-7.45-.78-14.95.5-22.38h1.21Z" style="fill: #fcf8c8"/>
    <path d="M190.2,102.83q0.06,22,.12,44.09c-1.85-1.3-1.32-3.26-1.32-5,0-13.17.06-26.34,0.09-39.51A5.34,5.34,0,0,1,190.2,102.83Z" style="fill: #f7e919"/>
    <path d="M146.24,162.9c2,2.27.74,5,1,7.5L145,169a4.13,4.13,0,0,1-.1-4.81Z" style="fill: #f7e922"/>
    <path d="M170.85,199.62c2.69,0.48,2.92,1.61,1.23,6l-1.45-2.4C169.85,202,169.58,200.76,170.85,199.62Z" style="fill: #f7e924"/>
    <path d="M170.85,199.62l-0.22,3.62c-2.45-2.34-1.35-4.79-.21-7.24Z" style="fill: #fefefe"/>
    <path d="M185.25,98.09a4.46,4.46,0,0,1-6,.06A6.16,6.16,0,0,1,185.25,98.09Z" style="fill: #f6e91e"/>
    <path d="M144.92,164.15L145,169C143.33,167.39,142.62,165.8,144.92,164.15Z" style="fill: #fefefd"/>
    <path d="M170.61,160.41l-0.2,4.83C169.26,163.58,168.17,161.92,170.61,160.41Z" style="fill: #fefefe"/>
    <path d="M155.9,156.73l-4.82.4C152.53,155.15,154.1,154.61,155.9,156.73Z" style="fill: #fefefd"/>
  </g>
</svg>
