<svg id="Layer_1" data-name="Layer 1" xmlns="http://www.w3.org/2000/svg" viewBox="0 0 80 80"><defs><style>.cls-1{fill:none;}.cls-1,.cls-2{stroke:#f8fff7;}.cls-1,.cls-2,.cls-3{stroke-miterlimit:10;stroke-width:4px;}.cls-2,.cls-3{fill:#fff;}.cls-3{stroke:#fff;}</style></defs><title>ICONS</title><rect class="cls-1" x="9.43" y="20.93" width="61.14" height="45.78"/><rect class="cls-2" x="9.43" y="19" width="61.14" height="4.26"/><rect class="cls-3" x="23.56" y="13.29" width="4.55" height="4.83"/><rect class="cls-3" x="52.91" y="13.29" width="4.55" height="4.83"/><rect class="cls-2" x="26.16" y="30.79" width="1.55" height="1.64"/><rect class="cls-2" x="34.74" y="30.79" width="1.55" height="1.64"/><rect class="cls-2" x="43.19" y="30.79" width="1.55" height="1.64"/><rect class="cls-2" x="51.49" y="30.79" width="1.55" height="1.64"/><rect class="cls-2" x="59.84" y="30.71" width="1.55" height="1.64"/><rect class="cls-2" x="17.48" y="39.32" width="1.55" height="1.64"/><rect class="cls-2" x="26.16" y="39.32" width="1.55" height="1.64"/><rect class="cls-2" x="34.74" y="39.32" width="1.55" height="1.64"/><rect class="cls-2" x="43.19" y="39.32" width="1.55" height="1.64"/><rect class="cls-2" x="51.49" y="39.32" width="1.55" height="1.64"/><rect class="cls-2" x="59.84" y="39.24" width="1.55" height="1.64"/><rect class="cls-2" x="17.48" y="47.86" width="1.55" height="1.64"/><rect class="cls-2" x="26.16" y="47.86" width="1.55" height="1.64"/><rect class="cls-2" x="34.74" y="47.86" width="1.55" height="1.64"/><rect class="cls-2" x="43.19" y="47.86" width="1.55" height="1.64"/><rect class="cls-2" x="51.49" y="47.86" width="1.55" height="1.64"/><rect class="cls-2" x="59.84" y="47.78" width="1.55" height="1.64"/><rect class="cls-2" x="17.48" y="56.4" width="1.55" height="1.64"/><rect class="cls-2" x="26.16" y="56.4" width="1.55" height="1.64"/><rect class="cls-2" x="34.74" y="56.4" width="1.55" height="1.64"/><rect class="cls-2" x="43.19" y="56.4" width="1.55" height="1.64"/><rect class="cls-2" x="51.49" y="56.4" width="1.55" height="1.64"/></svg>