<svg xmlns="http://www.w3.org/2000/svg" width="395.68" height="395.68" viewBox="0 0 395.68 395.68">
  <title>icons[1]</title>
  <g>
    <rect x="68.3" y="91.3" width="39.17" height="16.03" style="fill: #e8e2e2"/>
    <rect x="288.05" y="92.95" width="39.17" height="16.03" style="fill: #e8e2e2"/>
    <rect x="194.77" y="111.52" width="86.16" height="8.81" transform="translate(351.85 -122.86) rotate(89.54)" style="fill: #52cbdb"/>
    <rect x="121.44" y="111.52" width="86.16" height="8.81" transform="translate(279.11 -49.53) rotate(89.54)" style="fill: #52cbdb"/>
    <rect x="39.39" y="106.09" width="317.26" height="217.72" rx="17.39" ry="17.39" style="fill: #52cbdb"/>
    <path d="M47.28,202.35c218.32,0.57,282.54.8,301.44,0.89a8.14,8.14,0,0,1,7.88,8.35V315.2a8.15,8.15,0,0,1-7.91,8.35l-301.37.25a8.15,8.15,0,0,1-7.93-8.35L39.34,210.71A8.15,8.15,0,0,1,47.28,202.35Z" style="fill: #e8e2e2"/>
    <line x1="38.91" y1="206.05" x2="356.17" y2="207.01" style="fill: none;stroke: #000;stroke-miterlimit: 10;stroke-width: 5px"/>
    <ellipse cx="201.65" cy="207.11" rx="17.63" ry="8.58" style="fill: #e8e2e2"/>
    <rect x="159.77" y="71.88" width="81.67" height="9.3" style="fill: #52cbdb"/>
    <circle cx="201.65" cy="207.11" r="20.95" style="fill: #191c1c;stroke: #000;stroke-miterlimit: 10;stroke-width: 4px"/>
  </g>
</svg>
