<svg id="Layer_1" data-name="Layer 1" xmlns="http://www.w3.org/2000/svg" viewBox="0 0 80 80"><defs><style>.cls-1{fill:#fff;}</style></defs><title>ICONS</title><path class="cls-1" d="M64.6,65.88a1.75,1.75,0,0,1-1.7-1.81c0-11.51-8.82-20.87-19.67-20.87S23.56,52.56,23.56,64.07a1.7,1.7,0,1,1-3.39,0c0-13.5,10.34-24.48,23.07-24.48s23.07,11,23.07,24.48a1.76,1.76,0,0,1-1.7,1.81h0Zm0,0"/><path class="cls-1" d="M43.23,42.52c-7.38,0-13.38-6.37-13.38-14.2s6-14.2,13.38-14.2,13.38,6.37,13.38,14.2-6,14.2-13.38,14.2h0Zm0-24.8c-5.51,0-10,4.75-10,10.6s4.48,10.6,10,10.6,10-4.75,10-10.6-4.48-10.6-10-10.6h0Zm0,0"/><path class="cls-1" d="M19.71,60.69H6.63a1.76,1.76,0,0,1-1.7-1.8c0-11.62,8.29-20.38,19.28-20.38a18.71,18.71,0,0,1,9.86,2.95,1.87,1.87,0,0,1,.62,2.47,1.64,1.64,0,0,1-2.32.66,15.5,15.5,0,0,0-8.16-2.46c-8.47,0-15,6.32-15.8,15h11.3a1.81,1.81,0,0,1,0,3.6h0Zm0,0"/><path class="cls-1" d="M24.29,41.82c-6.26,0-11.35-5.4-11.35-12S18,17.72,24.29,17.72a11,11,0,0,1,8,3.53,1.88,1.88,0,0,1,0,2.55,1.63,1.63,0,0,1-2.4,0,7.7,7.7,0,0,0-5.63-2.47,8.22,8.22,0,0,0-8,8.44,8.22,8.22,0,0,0,8,8.44,7.84,7.84,0,0,0,6.54-3.64,1.64,1.64,0,0,1,2.37-.45,1.87,1.87,0,0,1,.43,2.51,11.19,11.19,0,0,1-9.33,5.19h0Zm0,0"/><path class="cls-1" d="M73.37,60.82h-9.1a1.8,1.8,0,0,1,0-3.6h7.31A16.41,16.41,0,0,0,57.32,42.42a1.76,1.76,0,0,1-1.51-1.71,1.78,1.78,0,0,1,1.36-1.85A8.21,8.21,0,0,0,63.6,30.7,9,9,0,0,0,55,21.94c-0.93,0-2.75-.78-2.75-1.77,0-1.73,1.82-1.84,2.75-1.84,6.37,0,12,5.78,12,12.37a12,12,0,0,1-4.36,9.4A20.28,20.28,0,0,1,75.06,59a1.76,1.76,0,0,1-1.7,1.8h0Zm0.12-.13"/></svg>